# xmcd
#
# Track frame offsets:
#	150
#	18412
#	35808
#	51698
#	64970
#	80179
#	97530
#	111800
#	129478
#	145802
#	159264
#	177190
#	192807
#	206551
#	224771
#	239997
#	255843
#	273909
#	289189
#
# Disc length: 4083 seconds
#
# Revision: 0
# Processed by: cddbd v1.5.2PL0 Copyright (c) Steve Scherf et al.
# Submitted via: EasyCDDAExtractor 11.5.0.1
#
DISCID=220ff113
DTITLE=Various Artist - NCT 043
DYEAR=2002
DGENRE=Country
TTITLE0=Shania Twain - I'm Gonna Getcha Good
TTITLE1=Joe Nichols - Brokenheartsville
TTITLE2=Pinmonkey - I Drove All Night
TTITLE3=Chalee Tennison - Lonesome Road
TTITLE4=Darryl Worley - Family Tree
TTITLE5=LeeAnn Womack - Forever Everyday
TTITLE6=Daryle Singletary - I'd Love To Lay You Down
TTITLE7=Blake Shelton - The Baby
TTITLE8=Michael Peterson - Lesson In Goodbye
TTITLE9=Dolly Parton - Hello God
TTITLE10=Delbert McClinton - Lonestar Blues
TTITLE11=Deana Carter - There's No Limit
TTITLE12=Kevin Denney - It'll Go Away
TTITLE13=Tommy Shane Steiner - What We're Gonna Do About It
TTITLE14=Doug Stone - Pow 369
TTITLE15=Sixwire - Way Too Deep
TTITLE16=Rodney Redman - These Days
TTITLE17=Guy Clark - Arizona Star
TTITLE18=The Dixie Chicks - Landslide
EXTD=
EXTT0=
EXTT1=
EXTT2=
EXTT3=
EXTT4=
EXTT5=
EXTT6=
EXTT7=
EXTT8=
EXTT9=
EXTT10=
EXTT11=
EXTT12=
EXTT13=
EXTT14=
EXTT15=
EXTT16=
EXTT17=
EXTT18=
PLAYORDER=
